<svg width="84" height="102" fill="none" xmlns="http://www.w3.org/2000/svg"><path d="M47 85.5h-1.1A62 62 0 0 0 35.6 88l-7.1 10.4a1.5 1.5 0 0 1-1.8.5 51 51 0 0 1-14.3-7.8 1.5 1.5 0 0 1-.5-1.7c0-.3.2-.5.3-.8.7-1.5 1.8-3.6 3.5-4.6 2.8-1.7 6.5.6 6.5.6s5-7.4 6.6-9.2c1.7-1.8 7.2-4 7.2-4l9.9 6.9s5 7.2 1 7.2Zm34.6-9.7c0 1.3-.5 2.4-1.2 3.4a13.6 13.6 0 0 1-12 5.2c-1.4 0-2.7-1-3.8-2.7-5.8-8.3-7.4-33-7.4-33l8-6.6s8 .2 11 2.8a25 25 0 0 1 3.4 10 98.7 98.7 0 0 1 2 21Z" fill="#EDEDED"/><path d="M69.7 85.2h-1.3c-4.1-.4-7.3-6.7-9.6-18.8a164.5 164.5 0 0 1-2.1-18.1.7.7 0 0 1 1.2.4s.5 8.8 2.2 17.5c2.1 11 5 17.3 8.4 17.6 6 .5 9.7-3 11.3-5 .7-.9 1-1.9 1-3 .2-13.7-2.7-28.2-5.1-30.4-2.7-2.4-10.4-2.7-10.4-2.7a.7.7 0 0 1 0-1.3c.3 0 8.2.3 11.3 3 3 2.7 5.8 18 5.6 31.4 0 1.4-.4 2.7-1.3 3.8a14.3 14.3 0 0 1-11.2 5.6Z" fill="#070707"/><path d="M81.5 70.3c-2.6 1.6-7 2.8-8.7 1.5l.2-9 .2-4.5s3.1-2.4 6.4-3.5c1.6-.5 2.4 1.8 3 4.6.5 3.3.6 7.2.7 8.5 0 .8-.7 1.6-1.8 2.4Z" fill="#EDEDED"/><path d="M75 73c-1 0-2-.2-2.6-.7a.7.7 0 0 1 .8-1c1.2.8 4.6.3 7.3-1.3 1.5-.8 2.2-1.6 2.1-2v-1.6c-.2-2.6-.6-9.8-2.3-10.9h-.5a26.6 26.6 0 0 0-6.5 3.4.7.7 0 0 1-.5-1.2s3.3-2.4 6.6-3.5a2 2 0 0 1 1.7.2c2 1.4 2.5 6.9 2.8 12v1.4c.2 1.1-.8 2.3-2.7 3.4-1.7 1-4.2 1.8-6.3 1.8Z" fill="#070707"/><path d="M81.5 70.3v5.5c0 1.3-.4 2.4-1.1 3.4a13.6 13.6 0 0 1-12 5.2c-1.4 0-2.7-1-3.8-2.7.1-3.6.6-3.9 1-7.4a18 18 0 0 1 1.7-7l5.7-4.5.3-.2s.2 2.1 3.2 2c1.5 0 3.2-.6 4.4-1.5 1.2-1 1.9-2.1 1.6-3.6.6 3.2.7 7.1.8 8.4 0 .8-.7 1.6-1.8 2.4Z" fill="#070707" opacity=".3"/><path d="m81.8 57.4-3.1 1.1c-.7.3-1.5.6-2 1.1l-.1.1v7.2l-.4-3.3-.3-3.4v-.6c0-.1 0-.3.2-.4.6-.8 1.4-1.1 2.2-1.6l3-1.4c1-.3 1.4 1 .5 1.2ZM27.2 99.7l-.7-.1a51.8 51.8 0 0 1-14.6-8 2.2 2.2 0 0 1-.6-2.5c.6-1.6 2-4.4 4-5.7 2.5-1.5 5.5-.3 6.7.3 1.2-1.7 5-7.2 6.3-8.8a28 28 0 0 1 7.4-4.2.7.7 0 0 1 .6 1.3c-1.5.6-5.7 2.4-7 3.9-1.5 1.7-6.5 9-6.5 9a.7.7 0 0 1-1 .2s-3.4-2-5.8-.5c-1.7 1-3 3.6-3.5 5a.8.8 0 0 0 .3 1 50.4 50.4 0 0 0 14.7 7.7c.2 0 .3-.1.4-.3l7.2-10.3a53.9 53.9 0 0 1 12.6-3.1c.5-1-1.2-4.1-2.4-6a.7.7 0 1 1 1.1-.7c.6.9 3.5 5.2 2.5 7.3-.3.4-.8 1-2 1-3.3 0-9.6 2-10.9 2.4l-7 10.2a2.2 2.2 0 0 1-1.8 1Z" fill="#070707"/><path d="M47.2 82.4c0 .4-.3.7-.6 1.5l-.7 1.7A62 62 0 0 0 35.6 88l-7.1 10.4a1.5 1.5 0 0 1-1.8.5 51 51 0 0 1-14.3-7.8 1.5 1.5 0 0 1-.5-1.7c0-.3.2-.5.3-.8l1.8 1c6.3 3.5 11 3.7 13.2-.4 0 0 4.3-5.8 7.7-8.2 3.5-2.4 3-6.3 3-6.3l8.3 6.7c.3.2 1 .6 1 1Z" fill="#070707" opacity=".3"/><path d="M35.7 88.4h-.1A21.8 21.8 0 0 1 24.3 81a.6.6 0 0 1 1-.4s4 5.2 10.5 6.8a.6.6 0 0 1-.1 1.1Z" fill="#070707"/><path d="M22 74s5.3-1.2 9.6-4.3l-10.4.8" fill="#EDEDED"/><path d="M22 74s5.3-1.2 9.6-4.3l-10.4.8" fill="#070707" opacity=".3"/><path d="M22 74.6a.7.7 0 0 1-.1-1.3s5.2-1.1 9.3-4.1a.7.7 0 0 1 .8 1 28 28 0 0 1-10 4.4Z" fill="#070707"/><path d="M65.7 89.4 58.4 99a5.8 5.8 0 0 1-7.8 1.4 15 15 0 0 1-5.3-6.9c-.9-2-1.3-4.3-1.2-6 0-.7.2-1.3.6-1.9l.7-1s-6.6-2-8-12.4v-2.6s-3.4-.3-3.7-.7l-3.4-11.4s4.3-7 10.5-9.7c3-1.3 7-1.8 10.5-2 3.9-.1 7 .1 7 .1l5.5-.3s4.7 1.4 7.2 5.8 3.3 12.2 1 16.2c3 10 1.7 17.7-6.3 21.8Z" fill="#EDEDED"/><path d="M53.7 102c-1.2 0-2.4-.4-3.4-1a17.2 17.2 0 0 1-7-13.6c.1-.8.4-1.5.8-2.1l.3-.4c-1.9-1-6.5-4-7.6-12.6v-2.1c-3.3-.3-3.5-.7-3.7-1a291.6 291.6 0 0 1-3.4-12c.2-.3 4.5-7.3 10.8-10A47.5 47.5 0 0 1 59 45.5a.7.7 0 0 1-.6 1c-.1 0-11.3-.7-17.2 2a25.8 25.8 0 0 0-10 9.1c1 3.9 2.8 9.8 3.2 10.8.5.2 2 .4 3.2.5a.7.7 0 0 1 .6.7v2.6c1.4 9.7 7.5 11.7 7.5 11.7a.7.7 0 0 1 .4 1l-.8 1.1c-.3.5-.4 1-.5 1.5-.2 3.8 2.5 10 6.3 12.3a5 5 0 0 0 6.8-1.2l7.4-9.6.2-.2c7-3.7 9-10.5 6-21a.7.7 0 0 1 0-.5c2-3.5 1.5-11.1-1-15.6a12.6 12.6 0 0 0-6.7-5.4.7.7 0 1 1 .3-1.3c.2 0 5 1.4 7.6 6 2.4 4.4 3.4 12.3 1.1 16.7 1.5 5.2 1.8 9.6.9 13.2-1 4-3.5 7-7.4 9L59 99.4a6.6 6.6 0 0 1-5.2 2.6Z" fill="#070707"/><path d="M42.4 59.5h14.3a2.3 2.3 0 0 1 2.3 2.3v8.6a2.3 2.3 0 0 1-2.3 2.3l-14.2.4a2.3 2.3 0 0 1-2.4-2.3v-9a2.3 2.3 0 0 1 2.3-2.3Z" fill="#EDEDED"/><path d="M42.4 73.8a3 3 0 0 1-3-3v-9a3 3 0 0 1 3-3h14.3a3 3 0 0 1 3 3v8.6a3 3 0 0 1-3 3l-14.2.4Zm0-13.6a1.6 1.6 0 0 0-1.6 1.6v9a1.6 1.6 0 0 0 1.7 1.6l14.2-.3a1.6 1.6 0 0 0 1.6-1.7v-8.6a1.6 1.6 0 0 0-1.6-1.6H42.4Z" fill="#070707"/><path d="M38.3 59.6h14.3a2.3 2.3 0 0 1 2.3 2.4v8.6a2.3 2.3 0 0 1-2.3 2.3l-14.2.3A2.3 2.3 0 0 1 36 71v-9a2.3 2.3 0 0 1 2.3-2.3Z" fill="#EDEDED"/><path d="M48.1 73.7a.7.7 0 0 1-.6-.7v-3.9a74.7 74.7 0 0 0-7.3-1.1.7.7 0 0 1-.2-.5l-.4-7.8a.7.7 0 1 1 1.3 0l.4 7.2c6.9.8 7.2 1.2 7.4 1.4a.7.7 0 0 1 0 .6 63.2 63.2 0 0 0 0 4.6l-.6.2Zm-.6-5.1Z" fill="#070707"/><path d="M38.3 74a3 3 0 0 1-3-3v-9a3 3 0 0 1 3-3h14.3a3 3 0 0 1 3 3v8.6a3 3 0 0 1-3 3l-14.2.3Zm0-13.7a1.6 1.6 0 0 0-1.6 1.7v9a1.6 1.6 0 0 0 1.7 1.6l14.2-.4a1.6 1.6 0 0 0 1.6-1.6V62a1.6 1.6 0 0 0-1.6-1.7H38.3Z" fill="#070707"/><path d="M54.4 68v1a1.2 1.2 0 0 1-1.2 1.1l-18.1.6-25.1 1a1.2 1.2 0 0 1-1.3-1.3v-1a1.2 1.2 0 0 1 .4-1l.8-.3 25-.8 18.3-.7a1.2 1.2 0 0 1 1.2 1.3Z" fill="#BCC4CC"/><path d="M54.4 68v.6a1.2 1.2 0 0 0-1.3-1l-18.2.7v-1l18.3-.7a1.2 1.2 0 0 1 1.2 1.3Z" fill="#838383" opacity=".6"/><path d="M35 70.7 9.3 68.4l-1-2.1L.7 49.9a1.3 1.3 0 0 1 .1-1.3l.6-.8a1.3 1.3 0 0 1 1-.5L24 46.2a3.4 3.4 0 0 1 3.4 2.1v.1l7.4 18.9.1 2v1.4Z" fill="#BCC4CC"/><path d="m34.9 67.6-7-18a3.4 3.4 0 0 0-3.4-2.2L2.7 48.5a1.3 1.3 0 0 0-1 .5l-.5.8-.2.7-.3-.6a1.3 1.3 0 0 1 .1-1.3l.6-.8a1.3 1.3 0 0 1 1-.5L24 46.2a3.4 3.4 0 0 1 3.4 2.1l7.4 19v.3Z" fill="#838383" opacity=".6"/><path d="M10 72.2a1.8 1.8 0 0 1-2-1.7v-1a1.8 1.8 0 0 1 1.8-2L53 66.2a1.8 1.8 0 0 1 2 1.8v1a1.8 1.8 0 0 1-1.8 1.7L10 72.2Zm-.1-3.5a.7.7 0 0 0-.6.7v1a.7.7 0 0 0 .7.7l43.2-1.6a.7.7 0 0 0 .6-.6v-1a.7.7 0 0 0-.4-.6h-.2L9.9 68.6Z" fill="#070707"/><path d="M35 71.2a.6.6 0 0 1-.5-.5l-.2-3.3L27 48.5a2.9 2.9 0 0 0-2.8-1.8L2.4 48a.7.7 0 0 0-.5.3l-.6.7a.7.7 0 0 0 0 .8l8.4 18.5a.6.6 0 0 1-1 .5L.1 50a1.9 1.9 0 0 1 .2-1.8l.5-.8a1.9 1.9 0 0 1 1.4-.8l21.8-1a4 4 0 0 1 4 2.5l7.4 19v.1l.3 3.4a.6.6 0 0 1-.6.6Z" fill="#070707"/><path d="m35 70.7-25 1a1.2 1.2 0 0 1-1.3-1.3v-1a1.2 1.2 0 0 1 .4-1l-1-2.1c11.7-.3 19-4.5 18.2-15.3v-3.2l1.2.6 7.4 18.9a615.7 615.7 0 0 1 .2 3.4Z" fill="#070707" opacity=".3"/><path d="M12.6 72.4s1-4.1 5.5-3.4c4.4.7 5.4 5 2.3 6.6-3 1.6-12.9 1.4-11.6-6.4 0 0 .3 2.3 3.8 3.2Z" fill="#EDEDED"/><path d="M20.4 75.6c-2.1 1.1-7.5 1.4-10.1-1.2 2.6.7 5.6.4 7-.4 2.1-1 2.3-3.4.9-5 4.3.8 5.3 5 2.2 6.6Z" fill="#070707" opacity=".3"/><path d="M16.4 77.1c-2 0-4.3-.5-6-1.7a6 6 0 0 1-2.3-6.3.7.7 0 0 1 1.3 0s.4 1.6 2.8 2.5a5.3 5.3 0 0 1 6-3.3c2.5.4 4.3 2 4.6 4 .3 1.6-.5 3.2-2 4-1 .5-2.7.8-4.4.8Zm-7-5.6a4 4 0 0 0 1.8 2.8c2.6 2 7 1.7 9 .7 1-.5 1.5-1.4 1.3-2.5-.2-1-1.2-2.5-3.5-2.9a4 4 0 0 0-4.7 3 .7.7 0 0 1-.9.5 7 7 0 0 1-3-1.6Z" fill="#070707"/><path d="M63 62.5c-.2 2.1-1 4.1-2.4 5.1l-6.2-2s-1.4 1.6-5.1 1.3c-3.7-.4-5.4-4.1-5.4-4.1s-1.5 3.2-3.4 2a2 2 0 0 1-.9-1.3c0-.6 0-1.3.3-1.8.3-.6.7-1.2 1.2-1.7l3.5-3.5c3-3.9 7.2-1 10 .6h7c1.3 1.3 1.7 3.4 1.5 5.4Z" fill="#EDEDED"/><path d="M60.6 68.3h-.2l-5.8-2c-.7.6-2.4 1.6-5.4 1.2a7.5 7.5 0 0 1-5.3-3.4c-.4.6-1.1 1.3-2 1.5-.6.2-1.2 0-1.8-.3-1.2-.9-1.5-2.2-.8-3.9a8 8 0 0 1 1.3-1.9l3.5-3.4c3.2-4 7.5-1.6 10.3 0l.4.3h6.9l.4.2c1.2 1.2 1.8 3.2 1.7 5.4a9 9 0 0 1-2.8 6.2l-.4.1ZM54.4 65h.2l5.9 2c1-1 1.8-3 2-5 0-1.7-.3-3.2-1.1-4.1h-6.8l-.3-.1-.6-.3c-3.5-2-6.3-3.4-8.5-.4l-3.6 3.5c-.5.4-.8 1-1 1.5-.7 1.5 0 2 .2 2.2.4.2.6.2.8.1.8-.2 1.5-1.4 1.7-1.8a.7.7 0 0 1 1.2 0s1.6 3.4 4.9 3.7c3.2.3 4.5-1 4.5-1a.7.7 0 0 1 .5-.3Z" fill="#070707"/><path d="m43.3 62.5 2.6-3.2-1.4 3.8a.7.7 0 0 1-.8.4.7.7 0 0 1-.4-1Zm10.5 2.8 1.6-1.7-.4 2.2-1.2-.5Z" fill="#070707"/><path d="M63 62.5c-.2 2.1-1 4.1-2.4 5.1l-6.2-2s-1.4 1.6-5.1 1.3c-3.7-.4-5.4-4.1-5.4-4.1s-1.5 3.2-3.4 2a2 2 0 0 1-.9-1.3l.2-.2s1.4.9 3-1.2a24 24 0 0 1 3.5-3.8s-1.6 3.9 1.5 5.7c3.1 1.8 6.9-3.2 6.9-3.2s2.2 2 7.7 1.7h.7Z" fill="#070707" opacity=".3"/><path d="M45 84c2-1.4 5-2.8 7.4-1.6a16.1 16.1 0 0 1 4.8 5.4c-1.4-1.4-3-2.8-4.7-3.8-.7-.4-1.4-.6-2.2-.7-1.6 0-3.2.9-4.5 1.8-.7.5-1.5-.5-.8-1Z" fill="#070707"/><path d="M55 101.8a.7.7 0 0 1-.7-.5.7.7 0 0 1 .4-.7c.2-.1.5-.3.6-.7.7-2.5-2.4-8.9-4.8-11.9s-4.3-2.8-4.4-2.8a.7.7 0 0 1-.7-1l.4-.3c.2 0 2.8-.5 5.8 3.3 2.2 2.8 5.8 9.8 5 13-.3.8-.7 1.3-1.4 1.6H55Zm-4.2-19.6a24 24 0 0 1 3.5-4.7c1.8-2 4.4-3.4 7-3.7l2 .1c-.6 0-1.2.2-1.8.4-1.9.5-3.5 1.6-4.8 2.9l-1.4 1.3c-1.1 1-2 2.4-3 3.7l-.3.6v.1c-.6 1-1.8.1-1.2-.7Z" fill="#070707"/><path d="M62.7 94a.6.6 0 0 1-.6-.5c-1-6.7-5.3-12.1-9.3-12.1a.6.6 0 0 1 0-1.2c4.6 0 9.2 5.8 10.4 13.1a.6.6 0 0 1-.5.7Zm-1.2-37.6h3.8l-3.5 1.4c-1 .3-1.3-1.3-.3-1.4Zm6.2 13.5c-3.4 0-7.1-1.5-7.4-1.6A.7.7 0 0 1 61 67c2.2 1 8.5 2.8 10.6.2a.7.7 0 0 1 1 .9c-1 1.3-2.9 1.8-4.8 1.8Z" fill="#070707"/><path d="m59.6 57-.2-3 1.5 2.7a.7.7 0 0 1-.3 1c-.4.2-1-.2-1-.6Zm-23.2 2.7a23.6 23.6 0 0 1 1.4-5.7 16.4 16.4 0 0 0 0 5.7c0 1-1.5 1-1.4 0Z" fill="#070707"/><path d="M72 67.6c3 10 1.7 17.7-6.3 21.8L58.4 99a5.8 5.8 0 0 1-7.8 1.4 15 15 0 0 1-5.3-6.9l.7.6c7.6 7.1 6.8-3.2 6.8-3.2 7.3 6.3 3.5-4 3.5-4.2l2.7 2.1s.6-1.7 6.3-6.7 2.3-10.8 2.3-10.8c-4 .8-8.6-2.2-8.6-2 0 0-3.7-.6-3.8-.5-.2.1 0-3 0-3l5.7 2 2.2-5.3H68c3.8-8-3.3-12.5-3.3-12.5-8.7 3.8-19.4 1-19.8 1l6.4-5.1c3.9-.2 7 0 7 0l5.5-.3s4.7 1.4 7.2 5.8 3.3 12.2 1 16.2ZM78.6 45Z" fill="#070707" opacity=".3"/><path d="M49.3 50.9a25 25 0 1 0 0-50.1 25 25 0 0 0 0 50.1Z" fill="#EDEDED"/><path d="M72.7 34.7A25 25 0 0 1 30.1 42 25 25 0 0 0 64 5.4a25 25 0 0 1 8.8 29.3Z" fill="#070707" opacity=".3"/><path d="M26 35.4a27 27 0 0 0 7.7 10c11 7.4 26 4.6 32.3-10.8l-1-12.7a14 14 0 0 0-3.1-5.5C52.8 6 28.5 2.3 24.5 22.3c0 0-1.6 6 1.5 13.1Z" fill="#070707"/><path d="M26 35.4a27 27 0 0 0 7.7 10c11 7.4 26 4.6 32.3-10.8l-1-12.7a14 14 0 0 0-3.1-5.5c3.4 17.4-18 35-35.7 19.1H26Z" fill="#1C1C1C" opacity=".7"/><path d="M48.3 51.5a22.8 22.8 0 0 1-1.7-.2.6.6 0 0 1 .3-1.2A19 19 0 0 0 63 43.3c3-3.4 4.5-7 4.7-7.6L67.2 20c-2.5-5.6-7.4-10-14-12.6-6.7-2.7-14-2.8-19.5-.4a.6.6 0 0 1-.7-1 27.4 27.4 0 0 1 20.6.3 25.9 25.9 0 0 1 14.8 13.6l.5 16v.2c-.1.2-1.5 4.2-5 8.1-3 3.4-8.1 7.4-15.7 7.4Z" fill="#070707"/><path d="M46 50c-4.3 0-8.7-1.4-12.7-4a.6.6 0 0 1 .7-1.1 21 21 0 0 0 17.7 3c6-1.9 10.8-6.6 13.7-13.4l-1-12.5c-1-3.6-4.1-7.1-8.5-9.7a28.6 28.6 0 0 0-14.6-3.7c-5 .1-13.9 2.2-16.2 13.8a.6.6 0 0 1-1.2-.2A17.3 17.3 0 0 1 41.3 7.3C52 7 63.4 13.7 65.6 21.7v.1l1 12.7v.3C63.6 42 58.5 47.1 52 49c-2 .6-4 1-6 1Z" fill="#070707"/><path d="M49.3 51.7a25.8 25.8 0 1 1 0-51.7 25.8 25.8 0 0 1 0 51.7Zm0-50.2a24.2 24.2 0 0 0-22.7 15.7A24.3 24.3 0 0 0 72 34.5l.7.2-.7-.2a24.3 24.3 0 0 0-22.7-33Z" fill="#070707"/><path d="M75.2 27.7c0 4.5-2.2 8.2-5.7 8.2s-6.4-3.6-6.4-8c0-4.6 2.7-8.2 6.2-8.3 3.5 0 5.8 3.6 5.9 8.1Z" fill="#EDEDED"/><path d="M69.5 35.9c-3.5 0-6.4-3.6-6.4-8 0-1.5.2-2.8.7-4 .6 3.8 3.2 6.6 6.3 6.6 2.3 0 4.1-1.6 5-4v1.2c.1 4.5-2 8.1-5.6 8.2Z" fill="#070707" opacity=".3"/><path d="M69.4 36.7c-1.9 0-3.6-1-5-2.7a9.7 9.7 0 0 1-2-6.1c-.1-5 3-9 6.9-9 1.9 0 3.6.9 4.8 2.6 1.2 1.7 1.8 3.8 1.8 6.2.1 5.1-2.6 9-6.4 9Zm0-16.3c-3.2 0-5.6 3.4-5.6 7.4 0 2 .7 4 1.8 5.3a5 5 0 0 0 3.9 2c3 0 5-3.1 5-7.4-.1-2-.6-4-1.6-5.3a4 4 0 0 0-3.5-2Z" fill="#070707"/><path d="M71.6 35.4c-3 0-5.6-3.5-5.6-7.7 0-2 .5-4 1.5-5.4 1-1.5 2.4-2.4 4-2.4a4 4 0 0 1 1 .1.6.6 0 0 1-.4 1.2h-.6c-1.1 0-2.2.7-3 1.8-.8 1.3-1.3 3-1.3 4.7.1 3.5 2 6.4 4.4 6.4.4 0 .7 0 1-.2a.6.6 0 1 1 .4 1.2 4 4 0 0 1-1.3.3Z" fill="#070707"/><path d="M43 12.5A24.8 24.8 0 0 0 30.4 32c0 .7-1 .8-1.2.1-3-10.7-1.5-20 13.4-20.8.6 0 .9.8.4 1.2Zm14.4 15.6h-.1a2.4 2.4 0 0 1-2.5-1.9l-.1-.4c-.3-1.3.5-2.5 1.8-2.8h.1a2.4 2.4 0 0 1 2.7 1.6l.2.5a2.4 2.4 0 0 1-2 3Zm-4.8 14.4a2.4 2.4 0 0 1-.8-3.3 17 17 0 0 0 2.4-5.7 2.4 2.4 0 0 1 2.8-1.9l.3.1c1.3.3 2.1 1.6 1.8 2.9a21 21 0 0 1-3.4 7.2 2.4 2.4 0 0 1-3.1.7Z" fill="#828282" opacity=".5"/><path d="M40.1 80s8.3 2.3 14.8-2.5l-3 4.5-1 .7c-2.3 0-4.2.6-5.3 1.7a10 10 0 0 1-5.5-4.4Zm-2.6-24.6S34.6 58 33.2 63l1.9 4.2.7-.5s.3-5.1.2-5.2c0-.1.8-1 1-2.5.3-1.3.2-2.2.2-2.2" fill="#070707" opacity=".3"/><path d="m22.8 84.1 1 2.6-2.1-1.7a.7.7 0 0 1-.1-1c.3-.4 1-.3 1.1.1Zm45.6-35.4a.7.7 0 0 1-.5-1.1c3.2-4 8.1-3.4 8.3-3.3a.7.7 0 0 1-.2 1.3 8 8 0 0 0-7 2.8.7.7 0 0 1-.6.3Z" fill="#070707"/><path d="M68.7 42.4S64.8 44 70.2 50c-2-2-4-3.5-6-4.3l2.9-3.5" fill="#070707" opacity=".3"/><path d="m20.3 54.2.2.5c-.8.7-2.3 1.6-4.2 2.4-1.8.9-3.5 1.5-4.5 1.6l-.3-.5a5.2 5.2 0 0 1-.3-.9 4.9 4.9 0 0 1 9-3.2h.1Zm.4 2.4a4.9 4.9 0 0 1-7.6 3.5 24.3 24.3 0 0 0 7.6-3.5Z" fill="#838383"/><path d="M20.5 54.7c-.8.7-2.3 1.6-4.2 2.4-1.8.9-3.5 1.5-4.5 1.6a4 4 0 0 1-.6-1.4 4.9 4.9 0 0 1 2-5.1 4.9 4.9 0 0 0-.7 3.7v.1c.3.8 1.2 1.2 2 1.1 1.7-.1 5.3-2 6-2.5.1.1 0 0 0 .1Zm-3.5 4 3.7-2v.5a21.8 21.8 0 0 1-7 3.3L13 60l4-1.4Z" fill="#838383"/><path d="m20.3 54.1.2.6c-.8.7-2.3 1.6-4.2 2.4-1.8.9-3.5 1.5-4.5 1.6l-.3-.5c1-.1 2.7-.7 4.5-1.6 2-.9 3.6-1.8 4.3-2.5ZM11 56.6v-.3c.7 0 2.5-.6 4.3-1.4 2.1-1 3.5-2 3.8-2.3l.3.1c-.4.6-2 1.6-4 2.5a13 13 0 0 1-4.4 1.4Zm.3-1.6v-.4c.7 0 2-.5 3.3-1.1 1.4-.7 2.6-1.4 3.1-1.9l.3.3c-.6.5-1.8 1.2-3.3 1.8-1.3.7-2.6 1.1-3.4 1.2Z" fill="#838383"/><path d="M11.2 57.5v-.3c.7 0 2.5-.6 4.4-1.5 2-1 3.7-2 4-2.5l.3.2c-.4.6-2 1.7-4.1 2.6-2 .9-3.8 1.5-4.6 1.5Zm3.1 3.4v-.2c.7 0 2-.5 3.2-1a9 9 0 0 0 2.8-1.8l.2.1c-.5.5-1.6 1.2-3 1.8-1.3.6-2.5 1-3.2 1Z" fill="#838383"/><path d="M20.7 56.6a4.9 4.9 0 0 1-7.6 3.5 24.3 24.3 0 0 0 7.6-3.5Z" fill="#838383"/><path d="M23.1 53.6c.3.7-.7 1.8-2.4 3a24.3 24.3 0 0 1-7.6 3.5c-2 .5-3.5.5-3.8-.1-.3-.6.5-1.6 1.9-2.7l.2.6c-.4.4-.6.6-.5.8h.9c1-.1 2.7-.7 4.5-1.6 1.9-.8 3.4-1.7 4.2-2.4.4-.3.6-.6.6-.7-.1-.2-.4-.2-1-.1l-.2-.5c1.7-.4 3-.3 3.2.2Z" fill="#838383"/><path d="M11.3 57.9c-.3.4-.5.6-.4.8h.9a16 16 0 0 0 2.7-.8v.3l-1.2.4c-1.7.5-2.7.5-2.8.3 0-.2.2-.5.8-1Zm-.1-.3-.8.8.8-.8Zm.1.1Z" fill="#838383"/><path d="M10.4 58.4c-.1.2-.2.4-.1.6 0 .2.2.2.5.3a7 7 0 0 0 2.6-.5c.4 0 .8-.2 1.2-.4l.4.3-1.9.6c-2.1.6-3 .4-3.2.1 0-.2 0-.5.5-1Z" fill="#838383"/><path d="M17 58.7c-1.4.6-2.8 1.1-4 1.4-2 .5-3.4.5-3.7-.1-.3-.6.5-1.6 1.9-2.7v.2c-.9.5-1.8 1.4-1.5 2 0 .2.3.4.7.4.8.1 2-.1 2.8-.4a23 23 0 0 0 2.3-.7H17Z" fill="#838383"/><path d="m14.6 58.4-1.2.4a7 7 0 0 1-2.6.5c-.3 0-.4-.1-.5-.3l.1-.6.9-.7v.2c-.6.5-.8.8-.8 1 .1.2 1 .2 2.8-.3l1.2-.4a.6.6 0 0 0 .1.2Z" fill="#838383"/><path d="m11.3 57.7-.9.7.8-.8Zm0 0v.1Zm8.3-1.7a27 27 0 0 1-5 2.3v-.1a29.2 29.2 0 0 0 4.8-2.4c1.6-1 2.2-1.7 2-1.9 0-.1-.4-.2-1.3 0v-.3a4 4 0 0 1 1-.1c.3 0 .5.1.6.3.2.6-1 1.5-2.1 2.2Z" fill="#838383"/><path d="m15.5 58.8-2.3.7a8 8 0 0 1-2.8.4c-.4 0-.6-.2-.7-.4-.3-.6.6-1.5 1.5-2v.2a4 4 0 0 0-.8.7c-.4.5-.6.8-.5 1 .2.3 1.1.5 3.2-.1l2-.6h.4Zm-4.3-1.2-.8.8.8-.8Zm0-.1.1.1Z" fill="#838383"/><path d="M20.2 56.3a25.4 25.4 0 0 1-4.7 2.5 2 2 0 0 1-.5-.1 28.4 28.4 0 0 0 5-2.6c2-1.2 2.4-2 2.2-2.3 0-.2-.4-.3-1-.3l-1.1.1H20v-.2c1-.2 2.2-.3 2.5.3.3.7-1.3 2-2.3 2.6Z" fill="#838383"/><path d="M23.1 53.6c.3.7-.7 1.8-2.4 3a24.3 24.3 0 0 1-7.6 3.5c-2 .5-3.5.5-3.8-.1-.3-.6.5-1.6 1.9-2.7l.2.6c-.4.4-.6.6-.5.8h.9c1-.1 2.7-.7 4.5-1.6 1.9-.8 3.4-1.7 4.2-2.4.4-.3.6-.6.6-.7-.1-.2-.4-.2-1-.1l-.2-.5c1.7-.4 3-.3 3.2.2Z" fill="#838383"/><path d="m20.5 54.7-.3.3a4 4 0 0 0-.6-1.2 4.9 4.9 0 0 0-8 .2 4.9 4.9 0 0 1 8.2-.7 4.8 4.8 0 0 1 .7 1.4Z" fill="#838383" opacity=".4"/><path d="m20.3 54.2.2.5c-.8.7-2.3 1.6-4.2 2.4-1.8.9-3.5 1.5-4.5 1.6a4.8 4.8 0 0 1-.4-.8 4.8 4.8 0 0 1 9-3.7Z" fill="#838383"/><path d="m20 54.4.1.5c-.7.6-2.1 1.4-3.8 2.1-1.7.8-3.2 1.3-4.1 1.5l-.3-.5a3.5 3.5 0 0 1-.2-.8 4.4 4.4 0 0 1 7.8-3.6 4.3 4.3 0 0 1 .4.8Z" fill="#31864A"/><path d="M20.3 56.6a4.4 4.4 0 0 1-5.8 3.7 4.4 4.4 0 0 1-1.1-.6 22 22 0 0 0 6.9-3.1Zm-.2-1.7c-.7.6-2.1 1.4-3.8 2.1-1.7.8-3.2 1.3-4.1 1.5l-.3-.5a3.8 3.8 0 0 1-.2-.8 4.4 4.4 0 0 1 1.8-4.6 4.4 4.4 0 0 0-.6 3.4c.2.8 1 1 1.8 1 1.5-.1 4.7-1.9 5.4-2.3v.2Z" fill="#195E2D"/><path d="M17 58.4a22 22 0 0 0 3.3-1.8v.5a19.6 19.6 0 0 1-6.4 3l-.5-.4c1-.2 2.3-.7 3.6-1.3Zm2.9-4.1.2.6c-.7.6-2.1 1.4-3.8 2.1-1.7.8-3.2 1.3-4.1 1.5l-.3-.5c.9-.1 2.4-.6 4.2-1.4a16 16 0 0 0 3.8-2.3Zm-8.4 2.3v-.3c.7 0 2.2-.5 3.9-1.3 2-.9 3.2-1.7 3.4-2.1l.3.2c-.4.5-1.8 1.4-3.6 2.2a12 12 0 0 1-4 1.3Zm.3-1.6v-.2l3-1a13 13 0 0 0 2.8-1.7l.2.2c-.5.4-1.6 1-3 1.7a14 14 0 0 1-3 1Z" fill="#195E2D"/><path d="M11.7 57.4V57c.6 0 2.3-.6 4-1.4 1.8-.8 3.3-1.7 3.6-2.2l.3.2c-.4.5-2 1.5-3.8 2.3-1.8.8-3.4 1.4-4.1 1.4Zm2.8 3v-.1c.6 0 1.7-.5 2.9-1 1.1-.5 2.1-1.1 2.6-1.5-.4.5-1.4 1.1-2.6 1.7-1.2.5-2.3.9-2.9 1Z" fill="#195E2D"/><path d="M16 60.8c-1 0-2-.3-2.8-1l-.3-.1.4-.1a21.9 21.9 0 0 0 6.9-3.2l.3-.2v.4a4.6 4.6 0 0 1-4.6 4.2Zm-2.2-1a4.2 4.2 0 0 0 6.3-2.9 23 23 0 0 1-6.3 3Z" fill="#070707"/><path d="M22.4 53.9c.3.6-.6 1.6-2.1 2.7a22 22 0 0 1-7 3.1c-1.8.5-3.1.5-3.4 0-.2-.6.5-1.5 1.8-2.5l.1.6c-.3.3-.5.5-.4.6 0 .2.3.2.8 0 .9 0 2.4-.6 4.1-1.4 1.7-.7 3.1-1.5 3.8-2.1.4-.3.6-.6.5-.7 0-.1-.3-.2-.8 0l-.3-.6c1.6-.3 2.7-.2 3 .3Z" fill="#195E2D"/><path d="M11.8 57.7c-.3.4-.5.6-.4.7 0 .2.3.2.8.1l2.5-.8v.3l-1.1.4c-1.6.4-2.4.4-2.5.2 0-.1 0-.4.7-1Z" fill="#30872F"/><path d="m11.7 57.5-.7.7.7-.7Zm.1.1Z" fill="#195E2D"/><path d="M11 58.2c-.2.2-.2.4-.1.5 0 .2.2.2.4.3.6 0 1.5-.2 2.3-.4l1.2-.4.3.2-1.7.6c-2 .5-2.7.4-2.9.1 0-.2 0-.5.5-1Z" fill="#30872F"/><path d="M16.9 58.5c-1.3.5-2.5 1-3.5 1.2-1.9.5-3.2.5-3.5 0-.2-.6.5-1.5 1.8-2.5v.2-.1c-.8.6-1.6 1.4-1.4 1.9.1.2.3.3.6.4.7 0 1.8-.2 2.6-.4l2-.7H17Z" fill="#30872F"/><path d="m14.8 58.2-1.2.4c-.8.2-1.7.5-2.3.4-.2 0-.4-.1-.4-.3v-.5l.8-.7.1.2c-.6.5-.8.8-.7 1 0 .1.9.1 2.5-.3l1-.4a.5.5 0 0 0 .2.2Z" fill="#195E2D"/><path d="m11.7 57.5-.7.7.7-.7Zm.1.1Zm7.5-1.6a24.4 24.4 0 0 1-4.6 2 26.1 26.1 0 0 0 4.4-2.2c1.4-.9 2-1.5 1.8-1.7 0-.1-.4-.2-1.2 0v-.2c.4-.2.7-.2 1-.2.2 0 .4.2.5.3.2.5-1 1.4-2 2Z" fill="#35A933"/><path d="m15.5 58.5-2 .7c-.8.2-1.9.5-2.6.4a.7.7 0 0 1-.6-.4c-.2-.5.6-1.3 1.3-2l.1.2a4.7 4.7 0 0 0 0 .1l-.7.7c-.4.4-.6.7-.5.9.2.3 1 .4 3-.1l1.6-.6.4.1Z" fill="#195E2D"/><path d="m11.7 57.5-.7.7.7-.7Z" fill="#30872F"/><path d="M11.7 57.4v.1-.1Zm8.1-1.1a22.9 22.9 0 0 1-4.3 2.2h-.4a25.7 25.7 0 0 0 4.6-2.4c1.7-1 2.1-1.8 2-2.1-.1-.2-.4-.3-1-.2h-1v.1l-.1-.2c.9-.2 2-.3 2.3.2.3.7-1.2 1.8-2 2.4Z" fill="#35A933"/><path d="M11.2 60.3c-.7 0-1.2-.2-1.4-.6-.4-.8 1-2 1.8-2.6l.2-.2v.3l.2.5v.2l-.5.4h.7a27.7 27.7 0 0 0 7.8-3.6l.4-.4h-.7l-.3-.5-.2-.3h.3c1-.3 2.7-.5 3.1.3.4 1-1.2 2.2-2.2 3a22.2 22.2 0 0 1-9.2 3.5Zm.4-2.8c-1.3 1-1.6 1.7-1.5 2 .2.4 1.1.6 3.2 0a21.9 21.9 0 0 0 6.9-3c1.8-1.3 2.2-2.2 2-2.5 0-.3-.8-.5-2.4-.2l.1.1c.5 0 .8 0 .9.2 0 .2 0 .5-.6 1l-3.8 2.1c-1.7.8-3.2 1.3-4.2 1.5-.6 0-.9 0-1-.2 0-.2 0-.5.4-.8v-.2Z" fill="#070707"/><path d="m20.1 54.9-.3.2-.1-.3v-.1a3.8 3.8 0 0 0-.4-.7 4.4 4.4 0 0 0-7.3.2 4.4 4.4 0 0 1 7.5-.6 4.4 4.4 0 0 1 .4.7l.2.6Z" fill="#838383" opacity=".4"/><path d="M12.1 58.7v-.1a4.6 4.6 0 0 1-.5-4 4.6 4.6 0 0 1 8.7.2v.2a26.4 26.4 0 0 1-8 3.7H12ZM16 52a4.2 4.2 0 0 0-3.6 6.3 21.6 21.6 0 0 0 7.6-3.4 4.2 4.2 0 0 0-4-3Z" fill="#070707"/></svg>